<?xml version="1.0" encoding="UTF-8"?>
<svg width="180px" height="180px" viewBox="0 0 180 180" version="1.1" xmlns="http://www.w3.org/2000/svg" xmlns:xlink="http://www.w3.org/1999/xlink">
    <!-- Generator: Sketch 54.1 (76490) - https://sketchapp.com -->
    <title>Active_icon</title>
    <desc>Created with Sketch.</desc>
    <g id="Active_icon" stroke="none" stroke-width="1" fill="none" fill-rule="evenodd">
        <g id="Active" transform="translate(28.000000, 28.000000)" fill="#0FAFFF" fill-rule="nonzero">
            <path d="M79.4895667,49.494 C80.8308333,48.058 81.6666667,46.13 81.6666667,44 C81.6666667,39.588 78.1384667,36 73.8,36 C69.4615333,36 65.9333333,39.588 65.9333333,44 C65.9333333,46.136 66.7731,48.068 68.1183,49.504 C66.779,50.254 65.5891667,51.264 64.6156667,52.49 C63.7936,52.192 62.9223667,52 62,52 C61.0776333,52 60.2064,52.192 59.3843333,52.49 C58.4128,51.264 57.221,50.254 55.8817,49.504 C57.2269,48.068 58.0666667,46.136 58.0666667,44 C58.0666667,39.588 54.5384667,36 50.2,36 C45.8615333,36 42.3333333,39.588 42.3333333,44 C42.3333333,46.13 43.1691667,48.058 44.5104333,49.494 C40.8701333,51.54 38.4,55.48 38.4,60 L38.4,70 C38.4,71.104 39.2791,72 40.3666667,72 L50.8883333,72 C50.4517333,73.254 50.2,74.596 50.2,76 L50.2,86 C50.2,87.104 51.0791,88 52.1666667,88 L71.8333333,88 C72.9209,88 73.8,87.104 73.8,86 L73.8,76 C73.8,74.596 73.5482667,73.254 73.1116667,72 L83.6333333,72 C84.7209,72 85.6,71.104 85.6,70 L85.6,60 C85.6,55.48 83.1298667,51.54 79.4895667,49.494 Z M70.1245902,44.1492537 C70.1245902,41.7950896 71.8597705,39.880597 73.9934426,39.880597 C76.1271148,39.880597 77.8622951,41.7950896 77.8622951,44.1492537 C77.8622951,46.5034179 76.1271148,48.4179104 73.9934426,48.4179104 C71.8597705,48.4179104 70.1245902,46.5034179 70.1245902,44.1492537 Z M66.2557377,59.6716418 C66.2557377,62.025806 64.5205574,63.9402985 62.3868852,63.9402985 C60.2532131,63.9402985 58.5180328,62.025806 58.5180328,59.6716418 C58.5180328,57.3174776 60.2532131,55.4029851 62.3868852,55.4029851 C64.5205574,55.4029851 66.2557377,57.3174776 66.2557377,59.6716418 Z M46.9114754,44.1492537 C46.9114754,41.7950896 48.6466557,39.880597 50.7803279,39.880597 C52.914,39.880597 54.6491803,41.7950896 54.6491803,44.1492537 C54.6491803,46.5034179 52.914,48.4179104 50.7803279,48.4179104 C48.6466557,48.4179104 46.9114754,46.5034179 46.9114754,44.1492537 Z M42.2688525,67.8208955 L42.2688525,60.0597015 C42.2688525,55.779403 45.7846252,52.2985075 50.1078106,52.2985075 C52.3850279,52.2985075 54.5250635,53.2997015 55.9987876,54.9664179 C54.7876686,56.3323881 54.0272896,58.1019403 54.0272896,60.0597015 C54.0272896,62.1261194 54.860179,63.9965672 56.1967213,65.3897015 C55.0385152,66.0241791 54.0057325,66.8526866 53.1277692,67.8208955 L42.2688525,67.8208955 Z M70.1245902,84.119403 L54.6491803,84.119403 L54.6491803,76.358209 C54.6491803,72.0779104 58.119541,68.5970149 62.3868852,68.5970149 C66.6542295,68.5970149 70.1245902,72.0779104 70.1245902,76.358209 L70.1245902,84.119403 Z M81.7311475,67.8208955 L70.8726627,67.8208955 C69.9945758,66.8526866 68.9616477,66.0241791 67.8032787,65.3897015 C69.1380491,63.9965672 69.9710556,62.1261194 69.9710556,60.0597015 C69.9710556,58.1019403 69.2105697,56.3323881 67.9992802,54.9664179 C69.4732117,53.2997015 71.6135485,52.2985075 73.8910863,52.2985075 C78.2148801,52.2985075 81.7311475,55.779403 81.7311475,60.0597015 L81.7311475,67.8208955 Z" id="Shape"></path>
            <path d="M15.2,19.6 L15.2,24 C20.0532,24 24,20.0532 24,15.2 L19.6,15.2 C19.6,17.6266 17.6266,19.6 15.2,19.6 Z" id="Path"></path>
            <path d="M15.2,111.6 L15.2,115.2 C20.0532,115.2 24,111.9708 24,108 L19.6,108 C19.6,109.9854 17.6266,111.6 15.2,111.6 Z" id="Path"></path>
            <path d="M108,92 C104.308,92 100.916,93.268 98.204,95.376 L93.03,90.202 C99.82,82.74 104,72.86 104,62 C104,51.14 99.82,41.26 93.032,33.796 L98.206,28.622 C100.916,30.732 104.308,32 108,32 C116.822,32 124,24.822 124,16 C124,7.178 116.822,0 108,0 C99.178,0 92,7.178 92,16 C92,19.692 93.268,23.084 95.376,25.796 L90.202,30.97 C82.74,24.178 72.86,20 62,20 C51.14,20 41.26,24.178 33.796,30.968 L28.622,25.794 C30.732,23.084 32,19.692 32,16 C32,7.178 24.822,0 16,0 C7.178,0 0,7.178 0,16 C0,24.822 7.178,32 16,32 C19.692,32 23.084,30.732 25.796,28.624 L30.97,33.798 C24.18,41.26 20,51.14 20,62 C20,72.86 24.18,82.74 30.968,90.204 L25.794,95.378 C23.084,93.268 19.692,92 16,92 C7.178,92 0,99.178 0,108 C0,116.822 7.178,124 16,124 C24.822,124 32,116.822 32,108 C32,104.308 30.732,100.916 28.624,98.204 L33.798,93.03 C41.26,99.822 51.14,104 62,104 C72.86,104 82.74,99.822 90.204,93.032 L95.378,98.206 C93.268,100.916 92,104.308 92,108 C92,116.822 99.178,124 108,124 C116.822,124 124,116.822 124,108 C124,99.178 116.822,92 108,92 Z M108.012579,3.89937107 C114.679138,3.89937107 120.100629,9.32086164 120.100629,15.9874214 C120.100629,22.6539811 114.679138,28.0754717 108.012579,28.0754717 C101.346019,28.0754717 95.9245283,22.6539811 95.9245283,15.9874214 C95.9245283,9.32086164 101.346019,3.89937107 108.012579,3.89937107 Z M15.9874214,28.0754717 C9.32086164,28.0754717 3.89937107,22.6539811 3.89937107,15.9874214 C3.89937107,9.32086164 9.32086164,3.89937107 15.9874214,3.89937107 C22.6539811,3.89937107 28.0754717,9.32086164 28.0754717,15.9874214 C28.0754717,22.6539811 22.6539811,28.0754717 15.9874214,28.0754717 Z M15.9874214,120.100629 C9.32086164,120.100629 3.89937107,114.679138 3.89937107,108.012579 C3.89937107,101.346019 9.32086164,95.9245283 15.9874214,95.9245283 C22.6539811,95.9245283 28.0754717,101.346019 28.0754717,108.012579 C28.0754717,114.679138 22.6539811,120.100629 15.9874214,120.100629 Z M24.1761006,62 C24.1761006,41.1431056 41.1431056,24.1761006 62,24.1761006 C82.8568944,24.1761006 99.8238994,41.1431056 99.8238994,62 C99.8238994,82.8568944 82.8568944,99.8238994 62,99.8238994 C41.1431056,99.8238994 24.1761006,82.8568944 24.1761006,62 Z M108.012579,120.100629 C101.346019,120.100629 95.9245283,114.679138 95.9245283,108.012579 C95.9245283,101.346019 101.346019,95.9245283 108.012579,95.9245283 C114.679138,95.9245283 120.100629,101.346019 120.100629,108.012579 C120.100629,114.679138 114.679138,120.100629 108.012579,120.100629 Z" id="Shape"></path>
            <path d="M115.2,15.2 L111.6,15.2 C111.6,17.6266 109.9854,19.6 108,19.6 L108,24 C111.9708,24 115.2,20.0532 115.2,15.2 Z" id="Path"></path>
            <path d="M108,111.6 L108,115.2 C111.9708,115.2 115.2,111.9708 115.2,108 L111.6,108 C111.6,109.9854 109.9854,111.6 108,111.6 Z" id="Path"></path>
        </g>
    </g>
</svg>