<?xml version="1.0" encoding="UTF-8"?>
<svg width="161px" height="67px" viewBox="0 0 161 67" version="1.1" xmlns="http://www.w3.org/2000/svg" xmlns:xlink="http://www.w3.org/1999/xlink">
    <!-- Generator: Sketch 53.2 (72643) - https://sketchapp.com -->
    <title>Haoshiyou_Logo</title>
    <desc>Created with Sketch.</desc>
    <g id="Page-1" stroke="none" stroke-width="1" fill="none" fill-rule="evenodd">
        <g id="好室友landing-page-copy-2" transform="translate(-145.000000, -39.000000)" fill="#FFFFFF">
            <g id="Haoshiyou_Logo" transform="translate(145.000000, 39.000000)">
                <path d="M23.9392209,61.8611588 L14.6773863,67 L14.8871421,57.5168946 C5.83551622,51.6560774 0,42.4349965 0,32.0638708 C0,14.3554839 17.0131795,0 38,0 C58.9868205,0 76,14.3554839 76,32.0638708 C76,49.7722577 58.9868205,64.1277416 38,64.1277416 C33.032857,64.1277416 28.2883056,63.3235901 23.9392247,61.8611601 Z M59.1111111,23.9631279 L59.1111111,18.1230574 L53.4814815,18.1230574 L53.4814815,20.044629 L38.7037037,9.75856937 L12.6666667,27.8816268 L64.7407407,27.8816268 L59.1111111,23.9631279 Z M45.037037,37.6401962 L45.037037,52.9750909 L59.1111111,52.9750909 L59.1111111,37.6401962 L59.1111111,29.2757081 L18.2962963,29.2757081 L18.2962963,37.6401962 L18.2962963,52.9750909 L32.3703704,52.9750909 L32.3703704,37.6401962 L45.037037,37.6401962 Z M25.3333333,44.6106028 C23.0014644,44.6106028 21.1111111,42.7381484 21.1111111,40.4283588 C21.1111111,38.1185692 23.0014644,36.2461148 25.3333333,36.2461148 C27.6652023,36.2461148 29.5555556,38.1185692 29.5555556,40.4283588 C29.5555556,42.7381484 27.6652023,44.6106028 25.3333333,44.6106028 Z M52.0740741,44.6106028 C49.7422051,44.6106028 47.8518519,42.7381484 47.8518519,40.4283588 C47.8518519,38.1185692 49.7422051,36.2461148 52.0740741,36.2461148 C54.405943,36.2461148 56.2962963,38.1185692 56.2962963,40.4283588 C56.2962963,42.7381484 54.405943,44.6106028 52.0740741,44.6106028 Z" id="Combined-Shape"></path>
                <text id="好室友" font-family="PingFangSC-Semibold, PingFang SC" font-size="22" font-weight="500" letter-spacing="0.4000001">
                    <tspan x="95" y="43">好室友</tspan>
                </text>
            </g>
        </g>
    </g>
</svg>