<svg height="67" viewBox="0 0 76 67" width="76" xmlns="http://www.w3.org/2000/svg"><path d="m23.9392209 61.8611588-9.2618346 5.1388412.2097558-9.4831054c-9.05162588-5.8608172-14.8871421-15.0818981-14.8871421-25.4530238 0-17.7083869 17.0131795-32.0638708 38-32.0638708s38 14.3554839 38 32.0638708-17.0131795 32.0638708-38 32.0638708c-4.967143 0-9.7116944-.8041515-14.0607753-2.2665815zm35.1718902-37.8980309v-5.8400705h-5.6296296v1.9215716l-14.7777778-10.28605963-26.037037 18.12305743h52.074074zm-14.0740741 13.6770683v15.3348947h14.0740741v-15.3348947-8.3644881h-40.8148148v8.3644881 15.3348947h14.0740741v-15.3348947zm-19.7037037 6.9704066c-2.3318689 0-4.2222222-1.8724544-4.2222222-4.182244s1.8903533-4.182244 4.2222222-4.182244c2.331869 0 4.2222223 1.8724544 4.2222223 4.182244s-1.8903533 4.182244-4.2222223 4.182244zm26.7407408 0c-2.331869 0-4.2222222-1.8724544-4.2222222-4.182244s1.8903532-4.182244 4.2222222-4.182244c2.3318689 0 4.2222222 1.8724544 4.2222222 4.182244s-1.8903533 4.182244-4.2222222 4.182244z" fill="#fff" fill-rule="evenodd"/></svg>