<?xml version="1.0" encoding="UTF-8"?>
<svg width="180px" height="180px" viewBox="0 0 180 180" version="1.1" xmlns="http://www.w3.org/2000/svg" xmlns:xlink="http://www.w3.org/1999/xlink">
    <!-- Generator: Sketch 54.1 (76490) - https://sketchapp.com -->
    <title>Secure</title>
    <desc>Created with Sketch.</desc>
    <g id="Secure" stroke="none" stroke-width="1" fill="none" fill-rule="evenodd">
        <g id="SafeReliablle" transform="translate(33.000000, 29.000000)" fill="#0FAFFF" fill-rule="nonzero">
            <path d="M111.931481,19.9179474 C111.643518,18.8244122 110.529901,18.1719628 109.442513,18.4597035 C74.6601543,27.6603817 60.7251954,4.65048223 58.9619216,1.40378726 C58.9075718,1.22941557 58.8315466,1.06265008 58.7356518,0.907451077 C58.3307283,0.337921304 57.6775271,0 56.9815512,0 C56.2855752,0 55.632374,0.337921304 55.2274505,0.907451077 C55.1118016,1.09778608 55.0271552,1.30550748 54.9767191,1.52274387 C52.9647524,5.1570733 38.9564087,27.5701388 4.55728187,18.4679074 C3.46989424,18.1801667 2.35627709,18.8326161 2.06831394,19.9261513 C1.880775,20.6398909 -15.8701937,91.6446793 56.1060297,122.778495 C56.3962293,122.923404 56.7156746,122.999194 57.0396475,123 C57.4366156,122.999709 57.8248618,122.882805 58.1567273,122.66364 C129.827181,91.4641934 112.11902,20.631687 111.931481,19.9179474 Z M57.1133192,119.006494 C-4.98456147,91.5207421 3.32068131,34.3201077 5.71775604,22.7393455 C36.4866643,30.0268123 52.0849611,12.818575 57.1133192,5.59090909 C62.1396408,12.8082645 77.7297912,30.0082534 108.484443,22.7414076 C110.690078,34.1695743 118.414891,91.8527405 57.1133192,119.006494 Z" id="Shape"></path>
            <path d="M105.392786,28.3863701 C104.951635,28.0460714 104.391089,27.8975051 103.838308,27.9743737 C100.775334,28.4229113 97.6839697,28.6521578 94.588026,28.6603477 C93.4448644,28.6603477 92.5181486,29.582633 92.5181486,30.7203295 C92.5181486,31.8580259 93.4448644,32.7803113 94.588026,32.7803113 C97.1667721,32.7757977 99.7431478,32.6244852 102.304529,32.3271153 C103.987339,50.0594389 101.849156,88.6099389 57.0094026,109.877191 C52.7554904,107.874764 48.6483773,105.57702 44.7184709,103.000972 C44.1026304,102.568136 43.2990227,102.502779 42.6207419,102.830365 C41.9424611,103.157951 41.4967972,103.826663 41.4573857,104.575963 C41.4179742,105.325263 41.7910491,106.036628 42.4312564,106.432902 C46.8034931,109.299395 51.3852035,111.83614 56.1379842,114.021875 C56.6917816,114.278423 57.3311634,114.278423 57.8849607,114.021875 C107.882848,90.8429592 108.321662,47.3773426 106.191758,29.7686179 C106.122691,29.2198039 105.834767,28.7216867 105.392786,28.3863701 Z" id="Path"></path>
            <path d="M14.3975474,57.0801067 C12.8140061,48.9879199 12.3790676,40.7041979 13.1061693,32.4848696 C15.5652368,32.7767831 18.0385327,32.9252774 20.5140745,32.9296334 C34.0156474,33.2092401 47.0787608,28.0189326 56.8608612,18.48813 C62.3698856,23.9112003 69.0257308,27.9615122 76.3116176,30.3245879 C76.9932932,30.5471928 77.7391954,30.3805966 78.2683501,29.8875545 C78.7975048,29.3945127 79.0295207,28.6499296 78.8769996,27.9342828 C78.7244786,27.218636 78.2105922,26.6406491 77.5289166,26.4180444 C70.2238914,24.0445731 63.6159689,19.8357342 58.3084059,14.1757651 C57.5066609,13.3786411 56.2310785,13.3786411 55.4293335,14.1757651 C46.285951,23.8105488 33.6386593,29.1160812 20.5200809,28.8201792 C17.5403028,28.8119923 14.5649003,28.585961 11.6165797,28.1438102 C11.08014,28.0582493 10.5332388,28.2069523 10.1089709,28.5537308 C9.68045343,28.8918502 9.40384896,29.3931138 9.34215262,29.9433617 C8.29784303,39.2689236 8.68289017,48.7042477 10.4833704,57.9081463 C13.0264291,71.2476458 19.1408921,83.6011566 28.1442168,93.5896866 C28.8961264,94.4205486 30.1636178,94.470101 30.9752379,93.7003652 C31.786858,92.9306294 31.8352628,91.6330884 31.0833533,90.8022264 C22.575253,81.3623453 16.7982298,69.6869444 14.3975474,57.0801067 Z" id="Path"></path>
            <path d="M82.6504554,81.1967405 C83.0128944,80.5380275 82.9931959,79.7330053 82.5989809,79.0931258 C81.6092935,77.5176447 80.2250837,76.233319 78.5860308,75.3697487 L69.3618048,70.5416104 C68.6784811,70.1827076 68.2475831,69.472505 68.2417202,68.6954964 L68.2417202,65.3583703 C69.5478327,63.0609266 70.5455557,60.5986714 71.2087089,58.0362131 C71.9521523,57.1337113 72.5276328,56.1030427 72.9073666,54.9939668 C72.9885736,54.7668346 73.0303647,54.527287 73.0309054,54.2858398 L73.0309054,50.0993767 C73.0305156,49.6761594 72.9019227,49.2631654 72.6623481,48.9157041 L71.4269607,47.1256589 L71.4269607,41.6807648 C71.6175789,39.0191165 70.7676785,36.3879418 69.0591348,34.3503011 C66.7654322,31.7088422 63.1086855,30.3631934 58.1753717,30.3507337 C53.242058,30.338274 49.610019,31.7067656 47.3224933,34.3461479 C45.6164945,36.3871712 44.7702966,39.0205599 44.9649623,41.6828415 L44.9649623,47.1256589 L43.7295749,48.9157041 C43.4900004,49.2631654 43.3614074,49.6761594 43.3610177,50.0993767 L43.3610177,54.2858398 C43.3612769,54.5558158 43.41373,54.8231504 43.5154411,55.0728783 C43.9371161,56.158601 44.5386656,57.1641551 45.294399,58.0465962 C45.9389632,60.5889092 46.8984486,63.0392205 48.1502029,65.3396807 L48.1502029,68.6954964 C48.0612797,69.447656 47.6505305,70.1229283 47.0260003,70.543687 L37.7770666,75.3822084 C36.1497628,76.2459995 34.7759025,77.525649 33.7929422,79.0931258 C33.3970588,79.7352985 33.3785735,80.5437482 33.7446848,81.2036438 C34.1107962,81.8635396 34.8036262,82.2705592 35.5533692,82.2661991 L80.8509077,82.2661991 C81.5988242,82.2658112 82.287716,81.8564077 82.6504554,81.1967405 Z M41.4545455,78.2727273 L49.0694407,74.4325908 C51.1052115,73.3051743 52.3997729,71.2414191 52.4961436,68.9698326 L52.4961436,65.1009771 C52.4947907,64.7191982 52.385012,64.3451597 52.1788563,64.0199131 C50.8623907,61.7921303 49.8902935,59.3889885 49.2936571,56.8873519 C49.1935898,56.3774368 48.8784268,55.9312426 48.4242899,55.6565389 C48.0785626,55.2456938 47.7937721,54.7899834 47.5781904,54.3026447 L47.5781904,51.2399717 L48.8473396,49.4717038 C49.0923007,49.1288066 49.2236441,48.7216326 49.2238539,48.3044828 L49.2238539,42.185291 C49.2239068,42.0953965 49.2175458,42.0056062 49.2048167,41.9165635 C49.0955694,40.4010331 49.5959312,38.9033821 50.6008808,37.7379534 C52.1132836,36.0599451 54.7954189,35.2045301 58.5647921,35.1942733 C61.4650255,34.9088096 64.355138,35.8209897 66.5265882,37.7071831 C67.5579295,38.8733263 68.0752882,40.3858875 67.9670725,41.9186148 C67.9544204,42.0069776 67.9480596,42.0960804 67.9480353,42.185291 L67.9480353,48.3044828 C67.9482451,48.7216326 68.0795885,49.1288066 68.3245496,49.4717038 L69.5936988,51.2399717 L69.5936988,54.3477745 C69.4107516,54.7929745 69.1818451,55.2190893 68.9104735,55.6196145 C68.4459202,55.9077509 68.1157587,56.3604314 67.9903403,56.8811978 C67.3813576,59.382659 66.378221,61.7780767 65.0163006,63.9829887 C64.7937141,64.3159935 64.674748,64.7041296 64.6736303,65.1009771 L64.6736303,68.9698326 C64.6692133,71.2730968 65.9948618,73.3848805 68.106679,74.4387449 L75.7342657,78.2727273 L41.4545455,78.2727273 Z" id="Shape"></path>
            <path d="M40.2587413,79.8701299 C39.158034,79.8701299 38.2657343,80.5853115 38.2657343,81.4675325 C38.2657343,82.3497535 39.158034,83.0649351 40.2587413,83.0649351 L64.1748252,83.0649351 C65.2755324,83.0649351 66.1678322,82.3497535 66.1678322,81.4675325 C66.1678322,80.5853115 65.2755324,79.8701299 64.1748252,79.8701299 L40.2587413,79.8701299 Z" id="Path"></path>
        </g>
    </g>
</svg>