<?xml version="1.0" encoding="UTF-8"?>
<svg width="180px" height="180px" viewBox="0 0 180 180" version="1.1" xmlns="http://www.w3.org/2000/svg" xmlns:xlink="http://www.w3.org/1999/xlink">
    <!-- Generator: Sketch 54.1 (76490) - https://sketchapp.com -->
    <title>Share_icon</title>
    <desc>Created with Sketch.</desc>
    <g id="Share_icon" stroke="none" stroke-width="1" fill="none" fill-rule="evenodd">
        <g id="SimpleFast" transform="translate(3.000000, 52.000000)" fill="#0FAFFF" fill-rule="nonzero">
            <path d="M13.85602,52.5439279 L0.542415589,42.4830207 C-0.0590203394,42.0289655 -0.178624075,41.1754783 0.275870121,40.5746233 C0.569753586,40.1854331 1.03108228,39.9976659 1.48215923,40.0386333 L80.5880701,41.4827337 C81.339865,41.4929755 81.9413009,42.1143142 81.9276319,42.865383 C81.9207974,43.3194382 81.6918417,43.7188702 81.3432823,43.9612606 L81.3466995,43.9646745 L57.2619244,60.6930238 C59.7496821,61.686483 62.2374398,62.5433841 64.7081112,63.2500715 C75.8893519,66.4523555 86.6434364,66.554774 95.9520243,62.615077 C105.246943,58.682208 113.168128,50.6833258 118.714324,37.6693528 C119.917196,34.8460171 121.014133,31.7734632 121.988049,28.448277 L121.844524,28.1854029 C109.706454,32.4357693 96.2014835,33.7603814 83.3594595,32.3572484 C70.52427,30.9507015 58.324689,26.8129955 48.7768936,20.1284837 L42.1337604,25.1606443 C41.5323245,25.6146995 40.6780121,25.4952113 40.2235179,24.8943563 C40.1654246,24.8158354 40.1141659,24.7304867 40.0731589,24.645138 L34.66707,14.7583421 L23.5575916,15.1543602 L23.5575916,15.1543602 C23.3115496,15.1646021 23.0620904,15.1065649 22.8331347,14.9734209 C22.18044,14.5978865 21.9583188,13.768297 22.330799,13.1162327 L28.546776,2.3076707 C28.6595453,2.08917798 28.833825,1.90141079 29.0593635,1.76826679 C29.1277084,1.7272994 29.1994707,1.69315991 29.2746502,1.66584832 C29.4352609,1.60439724 29.6027061,1.57708565 29.7701514,1.57708565 L69.9706756,1.0001283 C70.7224705,0.989886449 71.3409927,1.59415539 71.3478272,2.34522414 C71.3546617,2.79586539 71.139375,3.1952974 70.8079018,3.44792962 L70.811319,3.45134357 L51.0698681,18.4044395 C60.1221623,24.5256498 71.5836174,28.3322027 83.6567602,29.6534009 C95.962276,31.0019107 108.882897,29.7626473 120.525466,25.7649132 L118.844179,22.6889453 L118.80659,22.6923593 L101.279516,23.3136979 C101.033474,23.3239398 100.784015,23.2727306 100.555059,23.1430005 C99.8989476,22.777708 99.6597401,21.9481184 100.025386,21.2926402 L109.518505,4.32190052 L109.518505,4.32190052 C109.631274,4.11706359 109.79872,3.93953825 110.014006,3.81322214 C110.082351,3.77225476 110.154114,3.73811527 110.229293,3.71080368 C110.389904,3.6493526 110.557349,3.62204101 110.724794,3.62204101 L173.62269,2.72075851 C174.374485,2.71051667 174.993007,3.31478561 174.999842,4.06585436 C175.006676,4.5164956 174.79139,4.91592762 174.459916,5.16855983 L174.463334,5.17197378 L129.618767,39.1339369 C129.017331,39.5879921 128.163019,39.4685039 127.708525,38.8676489 C127.650432,38.7891281 127.599173,38.7037793 127.558166,38.6184306 L123.826529,31.7973608 C123.033727,34.2451621 122.169163,36.5598195 121.236254,38.7447467 C115.38934,52.4619932 106.958985,60.9251724 97.0216234,65.1311573 C87.0945133,69.3303144 75.7287412,69.2483796 63.9734026,65.8822261 C60.8842089,64.9980133 57.7540083,63.8816521 54.6101387,62.550212 L32.7158205,77.7559402 C32.0972983,78.1860977 31.2464032,78.03247 30.8158297,77.4145453 C30.8021607,77.3940616 30.7884918,77.3701639 30.7748228,77.3496803 L30.7748228,77.3496803 L20.30437,60.3311453 L16.9110411,67.8008653 C16.6000714,68.4870691 15.7936005,68.7943244 15.1067334,68.4836551 C14.5873114,68.2480926 14.2865935,67.7291724 14.3036797,67.1931824 L13.8731063,52.5575837 L13.85602,52.5439279 Z M32.5076258,11.0747664 L31.4285714,13.2336449 L33.5714286,13.1523312 L32.5076258,11.0747664 Z M30.6046551,11.0366133 L32.1428571,8.52144349 L31.4884466,7.47663551 L29.2857143,11.0747664 L30.6046551,11.0336784 L30.6046551,11.0366133 Z M27.3108606,11.734331 L30,6.55569198 L29.339909,5.31775701 L25.7142857,11.7943925 L27.3108606,11.7376677 L27.3108606,11.734331 Z M116.778169,18.271028 L115.714286,20.4299065 L117.857143,20.3506816 L116.774396,18.2749893 L116.778169,18.271028 Z M114.727085,19.6763939 L116.428571,16.9839569 L115.845097,16.1121495 L113.571429,19.7102804 L114.727085,19.6763939 Z M111.931413,19.6717074 L115,14.8629492 L114.38549,13.953271 L110.714286,19.7102804 L111.931413,19.6749219 L111.931413,19.6717074 Z M110.223501,20.3938209 L113.571429,13.442405 L113.097953,12.5140187 L109.285714,20.4299065 L110.223501,20.3938209 Z M108.873531,20.3907964 L113.571429,10.6417107 L113.058268,9.63551402 L107.857143,20.4299065 L108.873531,20.3907964 Z M105.401412,19.6478638 C105.408343,19.6248682 105.418741,19.6018727 105.432604,19.5821622 L111.428571,8.59356335 L110.783918,7.47663551 L103.571429,19.7102804 L105.401412,19.6478638 Z M66.4251072,3.1588785 L32.1428571,3.65585939 L41.9951933,21.8691589 L66.4285714,3.1588785 L66.4251072,3.1588785 Z M124.464253,27.1766737 C124.501784,27.2307967 124.53249,27.2883023 124.559785,27.3491907 L129.073661,35.5420561 L169.285714,5.31775701 L112.857143,6.12283627 L124.460841,27.1766737 L124.464253,27.1766737 Z M16.2572228,50.7750948 L66.2758402,45.2864795 C66.7481693,45.2344053 67.1722312,45.5815663 67.2204984,46.0571769 C67.2653179,46.4980713 66.9791624,46.8938349 66.5619958,46.9910399 L66.5619958,46.9910399 L22.0079158,57.5204329 L32.7542648,75.1214953 L77.1428571,44.0505863 L5.71428571,42.7383178 L16.2606705,50.7750948 L16.2572228,50.7750948 Z M18.9190591,56.1879424 C19.0262885,55.9689006 19.2372881,55.7956288 19.507091,55.7367818 L52.1428571,48.4953271 L16.4285714,52.1732668 L16.6949153,60.728972 L18.7184365,56.5181396 C18.7668627,56.4004456 18.8360429,56.28929 18.9190591,56.1879424 Z" id="Shape"></path>
        </g>
    </g>
</svg>